<?xml version="1.0" encoding="UTF-8"?>
<svg width="92" height="74" viewBox="0 0 92 74" fill="none" xmlns="http://www.w3.org/2000/svg">
<g clip-path="url(#clip0_902_1277)">
<path d="M72.8089 6.0968C72.8089 6.0968 85.1715 9.07135 84.6622 19.2302C84.2354 27.7397 71.6505 27.0051 62.4907 30.2065C51.0462 34.2074 46.5524 41.082 46.5524 41.082C46.5524 41.082 55.3392 34.8232 61.9814 35.6442C68.6235 36.4653 55.9525 40.567 50.9458 43.7504C45.9391 46.9302 42.3311 50.3405 40.4231 55.753C38.6873 60.6758 39.9103 68.2742 52.5777 72.0698C52.5777 72.0698 43.9988 67.2407 44.5081 59.8547C45.0174 52.4688 54.8694 49.4762 65.5571 47.7477C80.1683 45.3889 87.8326 39.3354 90.691 29.4863C93.553 19.6371 88.1375 5.37657 72.8089 6.0968Z" fill="#FFB800"/>
<path d="M81.248 19.8171C81.248 22.7809 78.8558 25.1828 75.9041 25.1828C72.9525 25.1828 70.5603 22.7809 70.5603 19.8171C70.5603 16.8534 72.9525 14.4514 75.9041 14.4514C78.8558 14.4514 81.248 16.8534 81.248 19.8171Z" fill="#FFB800"/>
<path d="M50.5368 11.8515C44.1134 4.16306 30.5207 -3.35974 16.512 1.58463C-0.344384 7.53373 -2.85491 26.2201 2.56065 35.864C7.97622 45.5078 21.4147 54.5215 34.0857 62.318C36.9477 64.079 39.3147 65.6383 41.2694 67.0031C39.4905 64.4859 38.7122 62.246 38.4325 60.4454C35.8789 58.7133 33.5154 57.154 31.837 55.9584C26.217 51.9575 17.2257 46.1092 11.5053 38.9285C5.78489 31.7479 4.86316 18.4092 12.8323 11.5382C20.8014 4.66362 32.7551 6.41017 40.1109 12.0496C47.4668 17.6926 49.6402 22.2156 49.6402 22.2156C50.2965 20.9012 51.975 18.5424 52.8859 17.2892L52.9003 17.3C52.9003 17.3 61.9202 4.19907 74.7454 7.94426C74.7454 7.94426 62.8993 -0.233947 50.526 11.8515H50.5368Z" fill="#00A22E"/>
<path d="M58.9938 30.0192H45.9247L43.407 26.4361C43.2277 26.1804 42.9551 26.0328 42.6646 26.0328C42.3777 26.0328 42.1051 26.1876 41.9294 26.4505L39.5049 30.0192H37.0195C36.6107 30.0192 36.252 30.3181 36.1229 30.7647L34.4767 36.5157L31.9339 13.0002C31.8765 12.4709 31.4928 12.0711 31.0301 12.0531C30.5675 12.0351 30.1622 12.406 30.0725 12.9282L27.3074 29.4287L24.6283 26.1912C24.4274 25.9463 24.1369 25.8275 23.8464 25.8599C23.5559 25.8959 23.2941 26.0832 23.1399 26.3677L21.1853 30.0156H9.60815L10.0457 32.1763H21.7161C22.0424 32.1763 22.3473 31.9819 22.5194 31.6614L24.1082 28.694L27.2069 32.4356C27.4508 32.7309 27.8166 32.8425 28.1538 32.7273C28.4945 32.6121 28.7491 32.2916 28.8137 31.8954L30.8006 20.0513L33.1282 41.5681C33.182 42.0687 33.5335 42.4612 33.971 42.5116C34.0033 42.5116 34.032 42.5152 34.0643 42.5152C34.4659 42.5152 34.8318 42.2199 34.9609 41.7698L37.7045 32.1763H39.9676C40.2581 32.1763 40.5307 32.0215 40.71 31.7586L42.6861 28.8489L44.7412 31.773C44.9205 32.0287 45.1895 32.1763 45.4764 32.1763H54.6362L58.9974 30.0156L58.9938 30.0192Z" fill="white"/>
<path d="M57.9861 74C57.9861 74 44.7055 66.1531 51.1826 57.9497C58.5385 48.6407 84.6085 54.4062 91.4658 37.8661C91.4658 37.8661 97.1468 51.2552 71.4605 55.3605C45.4658 59.5162 57.9861 74 57.9861 74Z" fill="white"/>
</g>
<defs>
<clipPath id="clip0_902_1277">
<rect width="92" height="74" fill="white"/>
</clipPath>
</defs>
</svg>
