<svg xmlns="http://www.w3.org/2000/svg" xmlns:xlink="http://www.w3.org/1999/xlink" viewBox="0 0 205.01 69"><defs><clipPath id="a" transform="translate(0 0)"><rect width="205" height="69" fill="none"/></clipPath></defs><g clip-path="url(#a)"><path d="M96,6.18h1.5l1.22,2,1.22-2h1.5v5.08H100V8.34l-1.31,2h0l-1.3-2v2.92H96V6.18Z" transform="translate(0 0)" fill="#fff"/><path d="M108.19,6.18h1.41v5.08h-1.41Z" transform="translate(0 0)" fill="#fff"/><path d="M116.39,6.18h1.32l2.1,2.68V6.18h1.4v5.08H120l-2.19-2.79v2.79h-1.4Z" transform="translate(0 0)" fill="#fff"/><path d="M128,6.18h1.42v5.08H128Z" transform="translate(0 0)" fill="#fff"/><path d="M135.81,10.5l.79-.94a2.66,2.66,0,0,0,1.66.61c.39,0,.59-.13.59-.35h0c0-.22-.17-.32-.87-.49-1.08-.25-1.92-.55-1.92-1.59h0c0-1,.75-1.63,2-1.63a3.17,3.17,0,0,1,2.1.68l-.71,1a2.56,2.56,0,0,0-1.43-.5c-.35,0-.51.14-.51.33h0c0,.23.17.33.89.49,1.17.26,1.9.63,1.9,1.58v0c0,1-.82,1.65-2.07,1.65A3.6,3.6,0,0,1,135.81,10.5Z" transform="translate(0 0)" fill="#fff"/><path d="M147.92,7.41h-1.53V6.18h4.48V7.41h-1.54v3.85h-1.41Z" transform="translate(0 0)" fill="#fff"/><path d="M157.33,6.17h2.42a2.3,2.3,0,0,1,1.67.55,1.57,1.57,0,0,1,.45,1.18h0a1.6,1.6,0,0,1-1.05,1.57L162,11.25h-1.63l-1-1.54h-.63v1.54h-1.42V6.17Zm2.36,2.44c.48,0,.77-.23.77-.6h0c0-.41-.31-.61-.77-.61h-.94V8.62h.94Z" transform="translate(0 0)" fill="#fff"/><path d="M169.73,9.35l-1.95-3.17h1.62l1,1.85,1.06-1.85h1.59l-1.95,3.15v1.93h-1.42Z" transform="translate(0 0)" fill="#fff"/><path d="M187.08,8.73h0a2.76,2.76,0,0,1,5.51,0h0a2.76,2.76,0,0,1-5.51,0Zm4,0h0a1.32,1.32,0,0,0-1.31-1.37,1.3,1.3,0,0,0-1.3,1.35v0a1.33,1.33,0,0,0,1.32,1.37,1.3,1.3,0,0,0,1.29-1.36Z" transform="translate(0 0)" fill="#fff"/><path d="M199.16,6.17h4.1V7.41h-2.68v.86H203V9.44h-2.42v1.81h-1.42V6.17Z" transform="translate(0 0)" fill="#fff"/><path d="M95.84,15.92h3.88v5.2h5v-5.2h3.88V29.81H104.7V24.54h-5v5.27H95.84Z" transform="translate(0 0)" fill="#fff"/><path d="M110.45,15.92H121.7v3.26h-7.41V21.3H121v3h-6.71v2.21h7.51v3.27H110.45V15.92Z" transform="translate(0 0)" fill="#fff"/><path d="M128,15.83h3.74l5.95,14h-4.16l-1-2.5h-5.41l-1,2.5H122.1l5.94-14Zm3.4,8.49-1.56-3.93-1.58,3.93Z" transform="translate(0 0)" fill="#fff"/><path d="M138.49,15.92h3.88V26.44h6.78v3.37H138.49V15.92Z" transform="translate(0 0)" fill="#fff"/><path d="M151.64,19.3h-4.17V15.92h12.25V19.3h-4.2V29.81h-3.88Z" transform="translate(0 0)" fill="#fff"/><path d="M160.81,15.92h3.88v5.2h5v-5.2h3.88V29.81h-3.88V24.54h-5v5.27h-3.88Z" transform="translate(0 0)" fill="#fff"/><path d="M94.9,34.28H99l2.44,8,2.7-8.07h3.34l2.7,8.07,2.43-8h4l-4.68,14h-3.38l-2.79-8-2.82,8H99.58l-4.67-14Z" transform="translate(0 0)" fill="#fff"/><path d="M117.57,34.28h11.25v3.26H121.4v2.12h6.72v3H121.4V44.9h7.51v3.27H117.56V34.28Z" transform="translate(0 0)" fill="#fff"/><path d="M130.32,34.28h3.88V44.8H141v3.37H130.32Z" transform="translate(0 0)" fill="#fff"/><path d="M142.05,34.28h3.88V44.8h6.77v3.37H142.05Z" transform="translate(0 0)" fill="#fff"/><path d="M153.78,34.28h3.62l5.75,7.35V34.28H167V48.17h-3.38l-6-7.61v7.61h-3.84Z" transform="translate(0 0)" fill="#fff"/><path d="M168.87,34.28h11.25v3.26H172.7v2.12h6.72v3H172.7V44.9h7.52v3.27H168.87V34.28Z" transform="translate(0 0)" fill="#fff"/><path d="M180.56,46.11l2.16-2.56a7.21,7.21,0,0,0,4.53,1.67c1.06,0,1.62-.36,1.62-.95v0c0-.6-.46-.9-2.37-1.35-3-.68-5.28-1.51-5.28-4.35v0c0-2.58,2.06-4.45,5.42-4.45a8.81,8.81,0,0,1,5.75,1.85l-1.93,2.72a6.93,6.93,0,0,0-3.92-1.37c-.94,0-1.4.38-1.4.89v0c0,.63.48.91,2.44,1.34,3.2.7,5.2,1.73,5.2,4.33v0c0,2.84-2.26,4.53-5.66,4.53a9.86,9.86,0,0,1-6.56-2.31Z" transform="translate(0 0)" fill="#fff"/><path d="M192.79,46.11,195,43.55a7.24,7.24,0,0,0,4.54,1.67c1,0,1.61-.36,1.61-.95v0c0-.6-.45-.9-2.37-1.35-3-.68-5.28-1.51-5.28-4.35v0c0-2.58,2.06-4.45,5.42-4.45a8.81,8.81,0,0,1,5.75,1.85l-1.93,2.72a6.93,6.93,0,0,0-3.92-1.37c-.94,0-1.4.38-1.4.89v0c0,.63.48.91,2.44,1.34,3.2.7,5.2,1.73,5.2,4.33v0c0,2.84-2.26,4.53-5.66,4.53a9.86,9.86,0,0,1-6.56-2.31Z" transform="translate(0 0)" fill="#fff"/><path d="M192.86,27.85A6.07,6.07,0,0,1,188.29,30c-2.52,0-4.4-1.57-4.4-3.89v0c0-1.84,1.24-3.17,3.38-4a4.47,4.47,0,0,1-1.4-3.05v0a3.41,3.41,0,0,1,3.7-3.3A3.23,3.23,0,0,1,193,18.82v0c0,1.77-1.25,2.9-3.29,3.61l3.2,3.24a17.76,17.76,0,0,0,1.67-3.1l1.3.6a18.71,18.71,0,0,1-2,3.49l2.44,2.48-1.2.91Zm-1-1L188.17,23c-1.86.68-2.68,1.81-2.68,3v0a2.69,2.69,0,0,0,2.92,2.62A4.76,4.76,0,0,0,191.9,26.88Zm-.42-7.94v0a1.89,1.89,0,0,0-2-1.93,2,2,0,0,0-2.12,2v0c0,.81.34,1.43,1.4,2.56,1.78-.6,2.7-1.45,2.7-2.64Z" transform="translate(0 0)" fill="#fff"/><path d="M68.65,5.68S80.31,8.46,79.83,17.93c-.41,7.94-12.27,7.25-20.91,10.24-10.79,3.73-15,10.14-15,10.14s8.29-5.84,14.55-5.07S52.76,37.83,48,40.79,39.91,46.94,38.11,52c-1.63,4.59-.48,11.67,11.46,15.21,0,0-8.08-4.5-7.6-11.39s9.76-9.68,19.84-11.29c13.78-2.2,21-7.84,23.7-17S83.1,5,68.65,5.68Z" transform="translate(0 0)" fill="#ffb800"/><path d="M76.61,18.48a5,5,0,1,1-5-5A5,5,0,0,1,76.61,18.48Z" transform="translate(0 0)" fill="#ffb800"/><path d="M47.65,11.05C41.59,3.88,28.78-3.13,15.57,1.48-.32,7-2.69,24.45,2.41,33.44s17.78,17.4,29.73,24.67c2.7,1.64,4.93,3.09,6.77,4.37a14.33,14.33,0,0,1-2.67-6.12c-2.41-1.61-4.64-3.07-6.22-4.18C24.72,48.45,16.24,43,10.85,36.3S4.59,17.17,12.1,10.76,30.88,6,37.82,11.24s9,9.47,9,9.47a46.33,46.33,0,0,1,3.06-4.59h0s8.5-12.21,20.59-8.72c0,0-11.16-7.63-22.83,3.64Z" transform="translate(0 0)" fill="#00a22e"/><path d="M55.62,28H43.3l-2.37-3.34a.87.87,0,0,0-.7-.38.88.88,0,0,0-.7.39L37.25,28H34.9a.91.91,0,0,0-.84.7l-1.55,5.36-2.4-21.93a.94.94,0,0,0-.85-.88.93.93,0,0,0-.91.81l-2.6,15.39-2.53-3a.83.83,0,0,0-.74-.31.89.89,0,0,0-.66.48L20,28H9.06l.41,2h11a.87.87,0,0,0,.75-.48l1.5-2.76,2.92,3.48a.83.83,0,0,0,.9.28,1,1,0,0,0,.62-.78L29,18.7l2.2,20.06a1,1,0,0,0,.79.88h.09A.9.9,0,0,0,33,39l2.59-9h2.13a.82.82,0,0,0,.7-.39l1.87-2.71,1.94,2.73a.85.85,0,0,0,.69.37h8.63l4.12-2Z" transform="translate(0 0)" fill="#fff"/><path d="M54.67,69s-12.52-7.32-6.41-15c6.93-8.68,31.51-3.3,38-18.72,0,0,5.36,12.48-18.86,16.31C42.87,55.49,54.67,69,54.67,69Z" transform="translate(0 0)" fill="#fff"/></g></svg>