<?xml version="1.0" encoding="UTF-8"?>
<svg width="205" height="69" viewBox="0 0 205 69" fill="none" xmlns="http://www.w3.org/2000/svg">
<g clip-path="url(#clip0_902_1047)">
<path d="M95.9619 6.17505H97.4599L98.6807 8.14274L99.9014 6.17505H101.399V11.2554H99.9893V8.33749L98.6807 10.3253H98.6502L97.3483 8.34421V11.2554H95.9585V6.17505H95.9619Z" fill="#231F1C"/>
<path d="M108.186 6.17505H109.603V11.2554H108.186V6.17505Z" fill="#231F1C"/>
<path d="M116.386 6.17505H117.709L119.812 8.86131V6.17505H121.215V11.2554H119.981L117.79 8.46844V11.2554H116.386V6.17505Z" fill="#231F1C"/>
<path d="M128.002 6.17505H129.419V11.2554H128.002V6.17505Z" fill="#231F1C"/>
<path d="M135.813 10.4999L136.601 9.56306C137.112 9.96264 137.667 10.1742 138.262 10.1742C138.651 10.1742 138.853 10.0432 138.853 9.82497V9.81154C138.853 9.59328 138.684 9.48583 137.984 9.31794C136.896 9.06946 136.057 8.76725 136.057 7.72968V7.71625C136.057 6.7727 136.811 6.09106 138.039 6.09106C138.908 6.09106 139.587 6.32275 140.142 6.76599L139.432 7.75991C138.965 7.42748 138.451 7.25959 137.998 7.25959C137.653 7.25959 137.487 7.39726 137.487 7.5853V7.59873C137.487 7.83042 137.663 7.93115 138.38 8.09233C139.55 8.34752 140.281 8.7236 140.281 9.67387V9.6873C140.281 10.7249 139.455 11.3427 138.211 11.3427C137.305 11.3427 136.449 11.0606 135.813 10.4999Z" fill="#231F1C"/>
<path d="M147.916 7.41055H146.388V6.17822H150.868V7.41055H149.333V11.2553H147.916V7.41055Z" fill="#231F1C"/>
<path d="M157.334 6.17499H159.752C160.533 6.17499 161.074 6.37646 161.419 6.71896C161.72 7.0178 161.872 7.4006 161.872 7.90091V7.91434C161.872 8.69672 161.456 9.21382 160.82 9.48245L162.041 11.252H160.411L159.38 9.71414H158.751V11.252H157.334V6.17163V6.17499ZM159.694 8.61277C160.167 8.61277 160.455 8.38108 160.455 8.01172V7.99829C160.455 7.59199 160.154 7.39052 159.687 7.39052H158.751V8.61613H159.694V8.61277Z" fill="#231F1C"/>
<path d="M169.734 9.35491L167.783 6.17505H169.399L170.451 8.02521L171.509 6.17505H173.095L171.151 9.33141V11.2554H169.734V9.35491Z" fill="#231F1C"/>
<path d="M187.078 8.73026V8.71683C187.078 7.25953 188.261 6.07422 189.841 6.07422C191.42 6.07422 192.59 7.24274 192.59 8.70004V8.71347C192.59 10.1708 191.406 11.3561 189.827 11.3561C188.248 11.3561 187.081 10.1876 187.081 8.73026H187.078ZM191.132 8.73026V8.71683C191.132 7.97811 190.605 7.34684 189.824 7.34684C189.043 7.34684 188.522 7.97139 188.522 8.7034V8.71683C188.522 9.44884 189.056 10.0868 189.837 10.0868C190.618 10.0868 191.129 9.46227 191.129 8.73026H191.132Z" fill="#231F1C"/>
<path d="M199.164 6.17499H203.255V7.40731H200.58V8.27027H202.998V9.4388H200.58V11.252H199.164V6.17163V6.17499Z" fill="#231F1C"/>
<path d="M95.8438 15.9229H99.7224V21.1208H104.7V15.9229H108.579V29.8142H104.7V24.5357H99.7224V29.8142H95.8438V15.9229Z" fill="#231F1C"/>
<path d="M110.452 15.9229H121.703V19.1766H114.287V21.2987H121.003V24.3342H114.287V26.5369H121.801V29.8108H110.449V15.9229H110.452Z" fill="#231F1C"/>
<path d="M128.04 15.8254H131.776L137.731 29.8175H133.575L132.574 27.3159H127.157L126.159 29.8175H122.102L128.036 15.8254H128.04ZM131.438 24.3174L129.879 20.3887L128.3 24.3174H131.438Z" fill="#231F1C"/>
<path d="M138.492 15.9229H142.371V26.4396H149.147V29.8142H138.495V15.9229H138.492Z" fill="#231F1C"/>
<path d="M151.643 19.2975H147.467V15.9229H159.718V19.2975H155.521V29.8142H151.643V19.2975Z" fill="#231F1C"/>
<path d="M160.813 15.9229H164.692V21.1208H169.67V15.9229H173.548V29.8142H169.67V24.5357H164.692V29.8142H160.813V15.9229Z" fill="#231F1C"/>
<path d="M94.9036 34.2833H99.002L101.44 42.3219L104.139 34.2463H107.476L110.175 42.3219L112.613 34.2833H116.63L111.953 48.2753H108.575L105.779 40.277L102.962 48.2753H99.5836L94.9069 34.2833H94.9036Z" fill="#231F1C"/>
<path d="M117.567 34.2834H128.817V37.5371H121.402V39.6593H128.117V42.6947H121.402V44.8975H128.915V48.1714H117.563V34.28L117.567 34.2834Z" fill="#231F1C"/>
<path d="M130.319 34.2834H134.197V44.8002H140.971V48.1748H130.319V34.2834Z" fill="#231F1C"/>
<path d="M142.049 34.2834H145.928V44.8002H152.701V48.1748H142.049V34.2834Z" fill="#231F1C"/>
<path d="M153.78 34.2834H157.398L163.153 41.627V34.2834H166.992V48.1748H163.613L157.618 40.5559V48.1748H153.78V34.2834Z" fill="#231F1C"/>
<path d="M168.868 34.2834H180.119V37.5371H172.703V39.6593H179.419V42.6947H172.703V44.8975H180.217V48.1714H168.865V34.28L168.868 34.2834Z" fill="#231F1C"/>
<path d="M180.558 46.113L182.716 43.5543C184.116 44.6456 185.634 45.2198 187.254 45.2198C188.312 45.2198 188.874 44.8638 188.874 44.2662V44.2259C188.874 43.6315 188.414 43.3327 186.496 42.876C183.517 42.2011 181.221 41.3683 181.221 38.531V38.4907C181.221 35.9119 183.28 34.0449 186.638 34.0449C189.016 34.0449 190.875 34.6796 192.394 35.8917L190.456 38.6116C189.178 37.6982 187.778 37.2416 186.54 37.2416C185.6 37.2416 185.14 37.6177 185.14 38.1348V38.1751C185.14 38.8097 185.621 39.0884 187.578 39.5249C190.777 40.22 192.776 41.2508 192.776 43.8498V43.8901C192.776 46.7274 190.517 48.4164 187.119 48.4164C184.64 48.4164 182.303 47.6408 180.562 46.113H180.558Z" fill="#231F1C"/>
<path d="M192.79 46.113L194.947 43.5543C196.347 44.6456 197.865 45.2198 199.485 45.2198C200.543 45.2198 201.105 44.8638 201.105 44.2662V44.2259C201.105 43.6315 200.645 43.3327 198.728 42.876C195.748 42.2011 193.452 41.3683 193.452 38.531V38.4907C193.452 35.9119 195.512 34.0449 198.87 34.0449C201.247 34.0449 203.107 34.6796 204.625 35.8917L202.687 38.6116C201.409 37.6982 200.009 37.2416 198.772 37.2416C197.831 37.2416 197.372 37.6177 197.372 38.1348V38.1751C197.372 38.8097 197.852 39.0884 199.81 39.5249C203.009 40.22 205.007 41.2508 205.007 43.8498V43.8901C205.007 46.7274 202.748 48.4164 199.35 48.4164C196.871 48.4164 194.534 47.6408 192.793 46.113H192.79Z" fill="#231F1C"/>
<path d="M192.864 27.8497C191.586 29.2197 190.104 30.0122 188.289 30.0122C185.769 30.0122 183.893 28.4441 183.893 26.1238V26.0835C183.893 24.2367 185.13 22.907 187.271 22.0743C186.31 20.9628 185.871 20.1099 185.871 19.0186V18.9784C185.871 17.1517 187.349 15.6843 189.567 15.6843C191.525 15.6843 192.965 17.0946 192.965 18.8205V18.8608C192.965 20.627 191.707 21.7586 189.668 22.4739L192.867 25.7074C193.486 24.8143 194.047 23.7633 194.544 22.6115L195.843 23.2059C195.224 24.5154 194.585 25.7074 193.824 26.698L196.262 29.1794L195.062 30.0928L192.864 27.8497ZM191.903 26.876L188.167 23.0447C186.307 23.7196 185.489 24.8512 185.489 26.0231V26.0634C185.489 27.5509 186.689 28.6825 188.407 28.6825C189.726 28.6825 190.886 27.9874 191.903 26.876ZM191.484 18.9381V18.8978C191.484 17.7863 190.646 16.9737 189.506 16.9737C188.248 16.9737 187.389 17.8468 187.389 18.9784V19.0186C187.389 19.8312 187.727 20.4491 188.789 21.5773C190.568 20.983 191.488 20.1301 191.488 18.9381H191.484Z" fill="#231F1C"/>
<path d="M68.6491 5.68463C68.6491 5.68463 80.3054 8.45819 79.8252 17.9306C79.4228 25.8652 67.5569 25.1802 58.9204 28.1653C48.1299 31.8958 43.8928 38.3059 43.8928 38.3059C43.8928 38.3059 52.1776 32.47 58.4402 33.2356C64.7029 34.0012 52.7558 37.8258 48.0352 40.7941C43.3145 43.759 39.9127 46.9389 38.1137 51.9857C36.477 56.5759 37.6301 63.6609 49.5738 67.2C49.5738 67.2 41.4851 62.6972 41.9653 55.8103C42.4455 48.9234 51.7346 46.133 61.8116 44.5213C75.5881 42.3219 82.8145 36.6774 85.5096 27.4937C88.2081 18.3101 83.1019 5.01306 68.6491 5.68463Z" fill="#FFB800"/>
<path d="M76.6058 18.478C76.6058 21.2415 74.3503 23.4812 71.5673 23.4812C68.7843 23.4812 66.5288 21.2415 66.5288 18.478C66.5288 15.7145 68.7843 13.4749 71.5673 13.4749C74.3503 13.4749 76.6058 15.7145 76.6058 18.478Z" fill="#FFB800"/>
<path d="M47.6494 11.0506C41.593 3.88167 28.7769 -3.13283 15.5686 1.47747C-0.324735 7.0246 -2.69182 24.4484 2.41432 33.4406C7.52047 42.4329 20.1912 50.8375 32.1382 58.1072C34.8367 59.7492 37.0685 61.2031 38.9114 62.4758C37.2342 60.1286 36.5004 58.0401 36.2366 56.3612C33.829 54.746 31.6005 53.2921 30.018 52.1773C24.7191 48.4468 16.2415 42.9936 10.8479 36.2981C5.45434 29.6026 4.58528 17.1652 12.0991 10.7585C19.6129 4.34841 30.8836 5.97695 37.8192 11.2353C44.7548 16.497 46.804 20.7145 46.804 20.7145C47.4228 19.4889 49.0054 17.2895 49.8643 16.121L49.8778 16.131C49.8778 16.131 58.3824 3.91525 70.4749 7.40739C70.4749 7.40739 59.3056 -0.218237 47.6392 11.0506H47.6494Z" fill="#00A22E"/>
<path d="M55.6233 27.9908H43.301L40.9271 24.6498C40.758 24.4114 40.501 24.2737 40.2271 24.2737C39.9566 24.2737 39.6996 24.4181 39.5339 24.6632L37.248 27.9908H34.9046C34.5191 27.9908 34.1809 28.2695 34.0592 28.6859L32.507 34.0483L30.1095 12.1217C30.0554 11.6281 29.6936 11.2554 29.2574 11.2386C28.8211 11.2218 28.439 11.5677 28.3545 12.0546L25.7473 27.4401L23.2213 24.4215C23.0319 24.1931 22.758 24.0823 22.4841 24.1125C22.2102 24.1461 21.9633 24.3207 21.8179 24.586L19.975 27.9875H9.05933L9.47188 30.0022H20.4755C20.7832 30.0022 21.0706 29.8208 21.2329 29.522L22.731 26.7551L25.6526 30.2439C25.8826 30.5193 26.2275 30.6234 26.5453 30.5159C26.8666 30.4085 27.1067 30.1096 27.1676 29.7403L29.0409 18.6964L31.2356 38.7594C31.2863 39.2261 31.6177 39.5921 32.0302 39.6391C32.0607 39.6391 32.0877 39.6425 32.1182 39.6425C32.4969 39.6425 32.8418 39.3671 32.9635 38.9474L35.5504 30.0022H37.6842C37.9581 30.0022 38.2151 29.8578 38.3842 29.6127L40.2474 26.8995L42.185 29.6261C42.3541 29.8645 42.6077 30.0022 42.8783 30.0022H51.5147L55.6267 27.9875L55.6233 27.9908Z" fill="#231F1C"/>
<path d="M54.6732 68.9998C54.6732 68.9998 42.1513 61.6831 48.2584 54.034C55.194 45.354 79.7745 50.7299 86.24 35.3074C86.24 35.3074 91.5964 47.7918 67.3777 51.6197C42.8682 55.4946 54.6732 68.9998 54.6732 68.9998Z" fill="#231F1C"/>
</g>
<defs>
<clipPath id="clip0_902_1047">
<rect width="205" height="69" fill="white"/>
</clipPath>
</defs>
</svg>
